<?xml version="1.0" encoding="UTF-8"?>
<svg xmlns="http://www.w3.org/2000/svg" viewBox="0 0 320 96" fill="none" role="img" aria-labelledby="title">
  <title id="title">Daliza Pastelería Fina</title>
  <rect width="320" height="96" rx="12" fill="#1a1210"/>
  <defs>
    <linearGradient id="gv" x1="0%" y1="0%" x2="100%" y2="0%">
      <stop offset="0%" stop-color="#E8D5A8"/>
      <stop offset="100%" stop-color="#C9A96E"/>
    </linearGradient>
  </defs>
  <g transform="translate(8,12)">
    <path fill="url(#gv)" d="M36 44c0-12-8-20-18-20S0 32 0 44c0 10 6 18 14 20v8h16v-8c8-2 14-10 14-20zm-18-28c6 0 10 4 10 10 0 4-2 8-6 10 2-4 2-8 2-12 0-4-2-8-6-8s-6 4-6 8c0 4 0 8 2 12-4-2-6-6-6-10 0-6 4-10 10-10z"/>
    <ellipse cx="18" cy="76" rx="14" ry="4" fill="#C9A96E" opacity=".2"/>
  </g>
  <text x="56" y="52" font-family="Georgia, 'Times New Roman', serif" font-size="28" fill="#F5EFE6" font-weight="500">Daliza</text>
  <text x="56" y="74" font-family="system-ui, sans-serif" font-size="11" letter-spacing="0.35em" fill="#C9A96E" opacity=".95">PASTELER&#xCD;A FINA</text>
</svg>
